<svg height="1758" width="720" xmlns="http://www.w3.org/2000/svg">
<rect height="1758" fill="#555" width="720"></rect>
<text fill="#7f7" font-family="Courier New" font-size="12" xml:space="preserve">
<tspan x="10" y="26">72 megabytes installed</tspan>
<tspan x="10" y="42"></tspan>
<tspan x="10" y="58">node_modules</tspan>
<tspan x="10" y="74">└─┬ markdown-preview@0.4.1 </tspan>
<tspan x="10" y="90">  ├─┬ commander@2.9.0 </tspan>
<tspan x="10" y="106">  │ └── graceful-readlink@1.0.1 </tspan>
<tspan x="10" y="122">  ├── marked@0.3.6 </tspan>
<tspan x="10" y="138">  ├── mathjax@2.7.0 </tspan>
<tspan x="10" y="154">  ├── mime@1.3.4 </tspan>
<tspan x="10" y="170">  ├── node-watch@0.5.2 </tspan>
<tspan x="10" y="186">  ├── open@0.0.5 </tspan>
<tspan x="10" y="202">  ├─┬ rehype-stringify@2.1.0 </tspan>
<tspan x="10" y="218">  │ ├─┬ hast-util-to-html@3.0.0 </tspan>
<tspan x="10" y="234">  │ │ ├── ccount@1.0.1 </tspan>
<tspan x="10" y="250">  │ │ ├── comma-separated-tokens@1.0.3 </tspan>
<tspan x="10" y="266">  │ │ ├── hast-util-is-element@1.0.0 </tspan>
<tspan x="10" y="282">  │ │ ├── hast-util-whitespace@1.0.0 </tspan>
<tspan x="10" y="298">  │ │ ├── html-void-elements@1.0.1 </tspan>
<tspan x="10" y="314">  │ │ ├── kebab-case@1.0.0 </tspan>
<tspan x="10" y="330">  │ │ ├── property-information@3.1.0 </tspan>
<tspan x="10" y="346">  │ │ ├── space-separated-tokens@1.1.0 </tspan>
<tspan x="10" y="362">  │ │ ├─┬ stringify-entities@1.3.0 </tspan>
<tspan x="10" y="378">  │ │ │ └── character-entities-html4@1.1.0 </tspan>
<tspan x="10" y="394">  │ │ └── unist-util-is@2.0.0 </tspan>
<tspan x="10" y="410">  │ └── xtend@4.0.1 </tspan>
<tspan x="10" y="426">  ├─┬ remark-parse@1.1.0 </tspan>
<tspan x="10" y="442">  │ ├── collapse-white-space@1.0.2 </tspan>
<tspan x="10" y="458">  │ ├── extend@3.0.0 </tspan>
<tspan x="10" y="474">  │ ├─┬ parse-entities@1.1.0 </tspan>
<tspan x="10" y="490">  │ │ ├── character-entities@1.2.0 </tspan>
<tspan x="10" y="506">  │ │ ├── character-entities-legacy@1.1.0 </tspan>
<tspan x="10" y="522">  │ │ ├── character-reference-invalid@1.1.0 </tspan>
<tspan x="10" y="538">  │ │ ├─┬ is-alphanumerical@1.0.0 </tspan>
<tspan x="10" y="554">  │ │ │ └── is-alphabetical@1.0.0 </tspan>
<tspan x="10" y="570">  │ │ ├── is-decimal@1.0.0 </tspan>
<tspan x="10" y="586">  │ │ └── is-hexadecimal@1.0.0 </tspan>
<tspan x="10" y="602">  │ ├── repeat-string@1.6.1 </tspan>
<tspan x="10" y="618">  │ ├── trim@0.0.1 </tspan>
<tspan x="10" y="634">  │ ├── trim-trailing-lines@1.1.0 </tspan>
<tspan x="10" y="650">  │ ├─┬ unherit@1.1.0 </tspan>
<tspan x="10" y="666">  │ │ └── inherits@2.0.3 </tspan>
<tspan x="10" y="682">  │ ├─┬ unist-util-remove-position@1.1.0 </tspan>
<tspan x="10" y="698">  │ │ └── unist-util-visit@1.1.1 </tspan>
<tspan x="10" y="714">  │ └── vfile-location@2.0.1 </tspan>
<tspan x="10" y="730">  ├─┬ remark-rehype@1.3.0 </tspan>
<tspan x="10" y="746">  │ └─┬ mdast-util-to-hast@2.4.0 </tspan>
<tspan x="10" y="762">  │   ├── detab@2.0.0 </tspan>
<tspan x="10" y="778">  │   ├── mdast-util-definitions@1.2.0 </tspan>
<tspan x="10" y="794">  │   ├── normalize-uri@1.1.0 </tspan>
<tspan x="10" y="810">  │   ├── trim-lines@1.1.0 </tspan>
<tspan x="10" y="826">  │   ├─┬ unist-builder@1.0.2 </tspan>
<tspan x="10" y="842">  │   │ └── object-assign@4.1.1 </tspan>
<tspan x="10" y="858">  │   ├── unist-util-generated@1.1.0 </tspan>
<tspan x="10" y="874">  │   └── unist-util-position@3.0.0 </tspan>
<tspan x="10" y="890">  ├─┬ showdown@1.6.4 </tspan>
<tspan x="10" y="906">  │ └─┬ yargs@6.6.0 </tspan>
<tspan x="10" y="922">  │   ├── camelcase@3.0.0 </tspan>
<tspan x="10" y="938">  │   ├─┬ cliui@3.2.0 </tspan>
<tspan x="10" y="954">  │   │ ├─┬ strip-ansi@3.0.1 </tspan>
<tspan x="10" y="970">  │   │ │ └── ansi-regex@2.1.1 </tspan>
<tspan x="10" y="986">  │   │ └── wrap-ansi@2.1.0 </tspan>
<tspan x="10" y="1002">  │   ├── decamelize@1.2.0 </tspan>
<tspan x="10" y="1018">  │   ├── get-caller-file@1.0.2 </tspan>
<tspan x="10" y="1034">  │   ├─┬ os-locale@1.4.0 </tspan>
<tspan x="10" y="1050">  │   │ └─┬ lcid@1.0.0 </tspan>
<tspan x="10" y="1066">  │   │   └── invert-kv@1.0.0 </tspan>
<tspan x="10" y="1082">  │   ├─┬ read-pkg-up@1.0.1 </tspan>
<tspan x="10" y="1098">  │   │ ├─┬ find-up@1.1.2 </tspan>
<tspan x="10" y="1114">  │   │ │ ├── path-exists@2.1.0 </tspan>
<tspan x="10" y="1130">  │   │ │ └─┬ pinkie-promise@2.0.1 </tspan>
<tspan x="10" y="1146">  │   │ │   └── pinkie@2.0.4 </tspan>
<tspan x="10" y="1162">  │   │ └─┬ read-pkg@1.1.0 </tspan>
<tspan x="10" y="1178">  │   │   ├─┬ load-json-file@1.1.0 </tspan>
<tspan x="10" y="1194">  │   │   │ ├── graceful-fs@4.1.11 </tspan>
<tspan x="10" y="1210">  │   │   │ ├─┬ parse-json@2.2.0 </tspan>
<tspan x="10" y="1226">  │   │   │ │ └─┬ error-ex@1.3.1 </tspan>
<tspan x="10" y="1242">  │   │   │ │   └── is-arrayish@0.2.1 </tspan>
<tspan x="10" y="1258">  │   │   │ ├── pify@2.3.0 </tspan>
<tspan x="10" y="1274">  │   │   │ └─┬ strip-bom@2.0.0 </tspan>
<tspan x="10" y="1290">  │   │   │   └── is-utf8@0.2.1 </tspan>
<tspan x="10" y="1306">  │   │   ├─┬ normalize-package-data@2.3.6 </tspan>
<tspan x="10" y="1322">  │   │   │ ├── hosted-git-info@2.4.2 </tspan>
<tspan x="10" y="1338">  │   │   │ ├─┬ is-builtin-module@1.0.0 </tspan>
<tspan x="10" y="1354">  │   │   │ │ └── builtin-modules@1.1.1 </tspan>
<tspan x="10" y="1370">  │   │   │ ├── semver@5.3.0 </tspan>
<tspan x="10" y="1386">  │   │   │ └─┬ validate-npm-package-license@3.0.1 </tspan>
<tspan x="10" y="1402">  │   │   │   ├─┬ spdx-correct@1.0.2 </tspan>
<tspan x="10" y="1418">  │   │   │   │ └── spdx-license-ids@1.2.2 </tspan>
<tspan x="10" y="1434">  │   │   │   └── spdx-expression-parse@1.0.4 </tspan>
<tspan x="10" y="1450">  │   │   └── path-type@1.1.0 </tspan>
<tspan x="10" y="1466">  │   ├── require-directory@2.1.1 </tspan>
<tspan x="10" y="1482">  │   ├── require-main-filename@1.0.1 </tspan>
<tspan x="10" y="1498">  │   ├── set-blocking@2.0.0 </tspan>
<tspan x="10" y="1514">  │   ├─┬ string-width@1.0.2 </tspan>
<tspan x="10" y="1530">  │   │ ├── code-point-at@1.1.0 </tspan>
<tspan x="10" y="1546">  │   │ └─┬ is-fullwidth-code-point@1.0.0 </tspan>
<tspan x="10" y="1562">  │   │   └── number-is-nan@1.0.1 </tspan>
<tspan x="10" y="1578">  │   ├── which-module@1.0.0 </tspan>
<tspan x="10" y="1594">  │   ├── y18n@3.2.1 </tspan>
<tspan x="10" y="1610">  │   └── yargs-parser@4.2.1 </tspan>
<tspan x="10" y="1626">  └─┬ unified@4.2.1 </tspan>
<tspan x="10" y="1642">    ├── bail@1.0.1 </tspan>
<tspan x="10" y="1658">    ├─┬ has@1.0.1 </tspan>
<tspan x="10" y="1674">    │ └── function-bind@1.1.0 </tspan>
<tspan x="10" y="1690">    ├─┬ once@1.4.0 </tspan>
<tspan x="10" y="1706">    │ └── wrappy@1.0.2 </tspan>
<tspan x="10" y="1722">    ├── trough@1.0.0 </tspan>
<tspan x="10" y="1738">    └── vfile@1.4.0</tspan>
</text>
</svg>
